<svg xmlns="http://www.w3.org/2000/svg" viewBox="0 0 285 53.78"><path fill="white" d="M5.95 0h43.3a7 7 0 0 1 6.47 7.26c4.18-2.38 8.51-4.5 12.74-6.78v10.64q-14.87 8-29.85 15.72c9.89 5.38 20 10.31 29.87 15.75-.06 3.57 0 7.15 0 10.72-4.23-2.29-8.53-4.44-12.71-6.82a7 7 0 0 1-6.45 7.3H6.5c-3.29-.17-6.36-2.52-6.51-6V36.23c6-3 12-6.21 18-9.39-6.07-2.92-11.93-6.24-18-9.19V6.04A6.73 6.73 0 0 1 5.95 0Zm0 10c7.45 3.82 14.86 7.71 22.3 11.55 7.26-3.91 14.63-7.61 21.89-11.54-14.7-.02-29.43 0-44.15-.03Zm.07 33.78c14.77.1 29.56 0 44.34.06-7.33-4-14.81-7.65-22.12-11.67-7.34 3.9-14.74 7.72-22.18 11.59ZM97.92 4.76a28.15 28.15 0 0 1 22 1.47v8.24c-4.91-2.62-10.64-4.27-16.19-3.08-4.74.9-9.09 4.68-9.74 9.61-.87 4.76 1.39 10.1 5.81 12.29 6.33 3.47 14.1 1.66 20.12-1.61v8.37c-6.25 2.79-13.39 3.89-20.06 2a19.54 19.54 0 0 1-12.8-10.16 21 21 0 0 1-.35-16.8A19.42 19.42 0 0 1 97.92 4.76ZM200.5 9.37c7.69-7.48 20.06-7.69 29.34-3.2v8.41c-5.6-3.29-12.77-4.89-18.94-2.28a11.43 11.43 0 0 0-7.13 10.86c-.24 5.33 3.91 10.06 8.93 11.36 5.81 1.61 12 0 17.14-2.85v8.26c-7.2 3.53-16 4.21-23.39.88a18.58 18.58 0 0 1-10.82-13.15 19.8 19.8 0 0 1 4.87-18.29ZM274.68 10.05v5.34h10.26v6c-3.43.06-6.86 0-10.29 0 .14 4.06-.31 8.17.23 12.2 1.57 4 6.8 3.27 10.05 2v6.19a18.1 18.1 0 0 1-12.31 0 8.9 8.9 0 0 1-5.46-8.31V13.78c2.56-1.1 5.07-2.37 7.52-3.73ZM130.33 16.8c5.2-3.27 13-2.69 16.84 2.42v-3.07h7.33v26.23h-7.36v-3.62c-5.08 6.43-16.66 5.41-20.77-1.64-3.82-6.42-2.64-16.12 3.96-20.32Zm6.8 4.64c-4.35 1.38-6.21 6.77-4.46 10.79 1.85 4.8 8.93 6 12.45 2.38 3-2.69 3-7.72.66-10.83a8 8 0 0 0-8.65-2.34ZM167.68 19.35c4.3-5.47 13.21-6.1 18.34-1.43s5.88 13 2.53 19c-4 7.19-15.54 8.32-20.89 2 .1 5 0 9.9 0 14.85h-7.48V16.15h7.45c.05 1.07.05 2.14.05 3.2Zm5.18 2c-6 1.37-7.48 10.39-2.55 13.88 4.41 3.62 12.26.58 12.33-5.38.86-5.37-4.59-10.32-9.79-8.53ZM234.44 15.41h7.48v15.2c0 2.12.81 4.62 3 5.41 3.54 1.78 9.08.35 9.55-4.12.18-5.5 0-11 .06-16.52h7.46v17.46a9.44 9.44 0 0 1-5.67 8.52 21.54 21.54 0 0 1-14.47.63c-3.79-1.08-7.19-4.33-7.36-8.43-.13-6.02.01-12.09-.05-18.15Z"/></svg>