<svg xmlns="http://www.w3.org/2000/svg" width="321.86118pt" height="150pt" viewBox="0 0 321.86117 149.99999"><defs><clipPath id="aE"><path d="M531.726 90.57h6.042v-5.636h-6.042z"/></clipPath><clipPath id="a"><path d="M69.61 328.041h477.038V155.543H69.609Z"/></clipPath><clipPath id="b"><path d="M69.609 328.04H546.65V155.543H69.609Z"/></clipPath><clipPath id="c"><path d="M69.61 178.957H401.06v-39.204H69.609Z"/></clipPath><clipPath id="d"><path d="M-15914.4 16633.698h32142.6v-32003h-32142.6z"/></clipPath><clipPath id="e"><path d="M8.504 8.505h597.741v841.889H8.504Z"/></clipPath><clipPath id="f"><path d="M86.056 561.049h81.437v-82.15H86.056Z"/></clipPath><clipPath id="g"><path d="M86.056 646.93h81.437v-82.15H86.056Z"/></clipPath><clipPath id="i"><path d="M174.863 561.049h81.438v-82.15h-81.438z"/></clipPath><clipPath id="j"><path d="M174.863 646.93h81.438v-82.15h-81.438z"/></clipPath><clipPath id="k"><path d="M174.863 732.873h81.438v-82.15h-81.438z"/></clipPath><clipPath id="l"><path d="M263.67 595.798h81.438V478.899H263.67Z"/></clipPath><clipPath id="m"><path d="M352.478 595.798h81.437V478.899h-81.437z"/></clipPath><clipPath id="n"><path d="M352.478 681.051h81.437v-82.15h-81.437z"/></clipPath><clipPath id="o"><path d="M441.285 720.577h81.44v-69.854h-81.44z"/></clipPath><clipPath id="p"><path d="M441.285 789.775h81.44v-65.221h-81.44z"/></clipPath><clipPath id="q"><path d="M441.285 561.049h81.44v-82.15h-81.44z"/></clipPath><clipPath id="r"><path d="M69.61 388.238H406.05v-39.204H69.609Z"/></clipPath><clipPath id="s"><path d="M-15914.4 16842.898h32142.6v-32212.2h-32142.6Z"/></clipPath><clipPath id="t"><path d="M8.504 8.505h597.741v841.889H8.504Z"/></clipPath><clipPath id="u"><path d="M96.901 460.966h54.067v-54.067H96.902Z"/></clipPath><clipPath id="v"><path d="M96.902 460.966h54.066v-54.067H96.902Z"/></clipPath><clipPath id="w"><path d="M96.902 433.933c0 14.93 12.102 27.033 27.034 27.033 14.929 0 27.032-12.103 27.032-27.033 0-14.93-12.103-27.035-27.032-27.035-14.932 0-27.034 12.105-27.034 27.035"/></clipPath><clipPath id="A"><path d="M98.846 459.021h50.178v-50.177H98.846Z"/></clipPath><clipPath id="B"><path d="M98.846 459.021h50.179v-50.177H98.846Z"/></clipPath><clipPath id="C"><path d="M98.846 433.933c0 13.856 11.234 25.088 25.09 25.088s25.089-11.232 25.089-25.088c0-13.855-11.233-25.089-25.089-25.089-13.856 0-25.09 11.234-25.09 25.089"/></clipPath><clipPath id="G"><path d="M186.081 459.435h52.844V406.59h-52.844z"/></clipPath><clipPath id="H"><path d="M186.081 459.435h52.844V406.59h-52.844z"/></clipPath><clipPath id="I"><path d="M186.08 433.014c0 14.592 11.83 26.421 26.423 26.421 14.593 0 26.422-11.829 26.422-26.421 0-14.593-11.829-26.424-26.422-26.424s-26.423 11.831-26.423 26.424"/></clipPath><clipPath id="M"><path d="M187.981 457.534h49.044v-49.042h-49.044z"/></clipPath><clipPath id="N"><path d="M187.981 457.535h49.044v-49.043h-49.044z"/></clipPath><clipPath id="O"><path d="M187.981 433.014c0 13.542 10.98 24.521 24.523 24.521s24.521-10.979 24.521-24.521c0-13.543-10.978-24.522-24.521-24.522-13.543 0-24.523 10.979-24.523 24.522"/></clipPath><clipPath id="T"><path d="M274.513 459.435h52.845V406.59h-52.845z"/></clipPath><clipPath id="U"><path d="M274.514 459.435h52.844V406.59h-52.844z"/></clipPath><clipPath id="V"><path d="M274.513 433.014c0 14.592 11.83 26.421 26.424 26.421 14.592 0 26.421-11.829 26.421-26.421 0-14.593-11.829-26.424-26.421-26.424-14.594 0-26.424 11.831-26.424 26.424"/></clipPath><clipPath id="Z"><path d="M276.414 457.534h49.044v-49.042h-49.044z"/></clipPath><clipPath id="aa"><path d="M276.415 457.535h49.043v-49.043h-49.043z"/></clipPath><clipPath id="ab"><path d="M276.414 433.014c0 13.542 10.98 24.521 24.524 24.521 13.542 0 24.52-10.979 24.52-24.521 0-13.543-10.978-24.522-24.52-24.522-13.544 0-24.524 10.979-24.524 24.522"/></clipPath><clipPath id="af"><path d="M364.967 459.307h52.844v-52.845h-52.844z"/></clipPath><clipPath id="ag"><path d="M364.967 459.307h52.844v-52.845h-52.844z"/></clipPath><clipPath id="ah"><path d="M364.967 432.886c0 14.592 11.83 26.421 26.423 26.421 14.592 0 26.421-11.829 26.421-26.421 0-14.593-11.829-26.423-26.421-26.423-14.593 0-26.423 11.83-26.423 26.423"/></clipPath><clipPath id="al"><path d="M366.867 457.406h49.045v-49.042h-49.045z"/></clipPath><clipPath id="am"><path d="M366.867 457.407h49.044v-49.043h-49.044z"/></clipPath><clipPath id="an"><path d="M366.868 432.886c0 13.542 10.98 24.521 24.523 24.521 13.541 0 24.52-10.979 24.52-24.521 0-13.543-10.979-24.522-24.52-24.522-13.543 0-24.523 10.979-24.523 24.522"/></clipPath><clipPath id="ar"><path d="M452.97 459.435h52.845V406.59H452.97Z"/></clipPath><clipPath id="as"><path d="M452.97 459.435h52.844V406.59H452.97Z"/></clipPath><clipPath id="at"><path d="M452.97 433.014c0 14.592 11.83 26.421 26.423 26.421 14.593 0 26.421-11.829 26.421-26.421 0-14.593-11.828-26.424-26.421-26.424s-26.423 11.831-26.423 26.424"/></clipPath><clipPath id="ax"><path d="M454.871 457.534h49.044v-49.042h-49.044z"/></clipPath><clipPath id="ay"><path d="M454.871 457.535h49.044v-49.043h-49.044z"/></clipPath><clipPath id="az"><path d="M454.871 433.014c0 13.542 10.98 24.521 24.523 24.521 13.542 0 24.521-10.979 24.521-24.521 0-13.543-10.979-24.522-24.521-24.522-13.543 0-24.523 10.979-24.523 24.522"/></clipPath><clipPath id="aD"><path d="M441.285 646.93h81.44v-82.15h-81.44z"/></clipPath><mask id="z"><clipPath id="x"><path d="M-6399.52 1961.588h9283.06v-9283.1h-9283.06z"/></clipPath><g clip-path="url(#x)"><clipPath id="y"><path d="M8.504 850.394Z"/></clipPath></g>&quot;/&gt;</mask><mask id="F"><clipPath id="D"><path d="M-6399.52 1961.588h9283.06v-9283.1h-9283.06z"/></clipPath><g clip-path="url(#D)"><clipPath id="E"><path d="M8.504 850.394Z"/></clipPath></g>&quot;/&gt;</mask><mask id="L"><clipPath id="J"><path d="M-6163.5 1926.128h9073.22v-9073.2H-6163.5Z"/></clipPath><g clip-path="url(#J)"><clipPath id="K"><path d="M8.504 850.394Z"/></clipPath></g>&quot;/&gt;</mask><mask id="R"><clipPath id="P"><path d="M-6163.5 1926.128h9073.22v-9073.2H-6163.5Z"/></clipPath><g clip-path="url(#P)"><clipPath id="Q"><path d="M8.504 850.394Z"/></clipPath></g>&quot;/&gt;</mask><mask id="Y"><clipPath id="W"><path d="M-6075.04 1926.128h9073.19v-9073.2h-9073.19z"/></clipPath><g clip-path="url(#W)"><clipPath id="X"><path d="M8.504 850.394Z"/></clipPath></g>&quot;/&gt;</mask><mask id="ae"><clipPath id="ac"><path d="M-6075.04 1926.128h9073.19v-9073.2h-9073.19z"/></clipPath><g clip-path="url(#ac)"><clipPath id="ad"><path d="M8.504 850.394Z"/></clipPath></g>&quot;/&gt;</mask><mask id="ak"><clipPath id="ai"><path d="M-5984.61 1926.008h9073.22v-9073.23h-9073.22Z"/></clipPath><g clip-path="url(#ai)"><clipPath id="aj"><path d="M8.504 850.394Z"/></clipPath></g>&quot;/&gt;</mask><mask id="aq"><clipPath id="ao"><path d="M-5984.61 1926.008h9073.22v-9073.23h-9073.22Z"/></clipPath><g clip-path="url(#ao)"><clipPath id="ap"><path d="M8.504 850.394Z"/></clipPath></g>&quot;/&gt;</mask><mask id="aw"><clipPath id="au"><path d="M-5896.6 1926.128h9073.21v-9073.2H-5896.6Z"/></clipPath><g clip-path="url(#au)"><clipPath id="av"><path d="M8.504 850.394Z"/></clipPath></g>&quot;/&gt;</mask><mask id="aC"><clipPath id="aA"><path d="M-5896.6 1926.128h9073.21v-9073.2H-5896.6Z"/></clipPath><g clip-path="url(#aA)"><clipPath id="aB"><path d="M8.504 850.394Z"/></clipPath></g>&quot;/&gt;</mask><image id="h" width="457" height="461"/><image id="S" width="368" height="368"/></defs><g clip-path="url(#aE)" transform="translate(-8.799 -686.037)"><path fill="#808285" d="M559.583 88.125c0 .112-.048.245-.273.245h-.395c-.228 0-.275-.133-.275-.245 0-.153.102-.245.275-.245h.395c.17 0 .273.092.273.245m-.234-.518h-.476c-.33 0-.56.214-.56.518 0 .31.225.518.56.518h.476c.343 0 .557-.2.557-.518 0-.31-.224-.518-.557-.518M559.586 87.626l.323-.117v-1.502h-.323ZM561.322 86.889v-.515h.518v-.27h-1.353v.27h.515v.515a.216.216 0 0 1-.033.129c-.14.183-.377.472-.577.685l-.02.023.223.197.02-.022c.232-.25.385-.426.561-.641l.613.62.202-.2-.644-.673c-.025-.027-.025-.075-.025-.118M562.385 86.007h-.322v2.592l.322-.127v-1.438h.364v-.27h-.364ZM563.385 87.882h1.244v.771h.323v-1.038h-1.567ZM564.027 86.869a.44.44 0 0 0 .113-.278h.489v.292h-.614l.012-.014m.601-.863v.312h-.477c.002-.094.002-.18.002-.222v-.031h-1.138v.267h.815c0 .115-.004.216-.01.273a.158.158 0 0 1-.032.07c-.095.13-.498.46-.798.653l-.036.024.246.189.018-.012c.29-.19.623-.458.782-.63v.257h.629v.414l.323-.138v-1.426z"/><path fill="#231f20" d="M544.829 88.419h2.272v-.393h-2.272ZM546.229 87.258h-.527v-.741h.527zm.482-.74h.238v-.387h-1.967v.387h.237v.74h-.246v.387h1.985v-.387h-.247zM548.123 87.753h-.503v.603c0 .06.165.22.227.22h1.737v-.393h-1.461ZM549.031 87.397v.467h.494v-1.832h-.494v1.058l-.012.007c-.167.088-.388.088-.583.088h-.499v-.183h.84v-.91h-1.348v.37h.84v.182h-.84v.91h.937c.321 0 .526-.041.627-.126zM551.053 88.294c-.317 0-.513-.031-.513-.182 0-.154.205-.185.513-.185.31 0 .516.031.516.185 0 .151-.197.182-.516.182m0-.734c-.7 0-1.013.17-1.013.552 0 .38.313.549 1.013.549.702 0 1.016-.169 1.016-.549 0-.382-.314-.552-1.016-.552M551.528 87.249v.223h.494v-1.44h-.494v.95l-.012.006c-.167.088-.388.088-.583.088h-.513v-.171h.783v-.321h-.783v-.168h.842v-.333h-1.336v1.323h.936c.322 0 .527-.041.628-.125zM541.39 86.622a.948.948 0 0 0-.097-.241.66.66 0 0 0-.149-.18.29.29 0 0 0-.187-.07h-1.867v.62h1.603c.018 0 .045.008.068.039a.128.128 0 0 1 .026.078.12.12 0 0 1-.019.054.232.232 0 0 1-.057.063l-.007.005h-.937l.002.607h.937l.007.007c.013.013.026.03.04.052a.114.114 0 0 1 .023.06.144.144 0 0 1-.019.075.073.073 0 0 1-.064.037h-1.607v.622h1.871a.294.294 0 0 0 .187-.07.623.623 0 0 0 .15-.177 1.012 1.012 0 0 0 .105-.713.391.391 0 0 0-.103-.182l-.012-.014.011-.015a.69.69 0 0 0 .127-.411c0-.076-.01-.16-.033-.246M543.957 86.372a.671.671 0 0 0-.154-.174.311.311 0 0 0-.197-.067h-1.849v.607h1.606c.055 0 .063.033.064.048.001.018.004.045.01.083v.883a.22.22 0 0 1-.006.055c-.005.016-.02.036-.067.036h-.95v-.856h-.657v1.463h1.848a.311.311 0 0 0 .197-.067.671.671 0 0 0 .155-.174.965.965 0 0 0 .136-.493v-.848a.984.984 0 0 0-.135-.496"/><path fill="#808285" d="M539.16 89.808h.1c0 .042.033.076.075.076a.075.075 0 0 0 .074-.076.074.074 0 0 0-.064-.074l-.014-.001v-.1l.014-.001a.074.074 0 0 0 .064-.074.075.075 0 0 0-.15 0h-.1a.176.176 0 1 1 .3.125.175.175 0 1 1-.299.125M540.092 89.683c0-.2-.25-.2-.25-.2v.4s.25 0 .25-.2m.1 0c0 .3-.35.3-.35.3h-.102v-.6h.101s.351 0 .351.3M541.056 89.558c0-.076-.101-.076-.101-.076h-.101v.152h.1s.102 0 .102-.076m.1 0c0 .177-.201.177-.201.177h-.101v.251h-.1v-.605h.2s.203 0 .203.177M541.452 89.633h.1s.1 0 .1-.076c0-.075-.1-.075-.1-.075h-.1Zm.082.1h-.082v.25h-.1v-.601h.2s.2 0 .2.175c0 .098-.06.14-.115.16l.123.267h-.111ZM541.954 89.381h.1v.602h-.1zM542.65 89.984l-.3-.429v.43h-.102v-.604h.102l.301.43v-.43h.1v.603ZM543.383 89.482h-.151v.502h-.1v-.502h-.151v-.1h.402ZM543.576 89.381h.101v.602h-.101zM544.272 89.984l-.3-.429v.43h-.1v-.604h.101l.301.43v-.43h.1v.603ZM545.102 89.633v.35h-.1v-.04a.301.301 0 1 1 .062-.473l-.07.07a.2.2 0 1 0-.143.342.198.198 0 0 0 .15-.066v-.083h-.175v-.1ZM546.317 89.984h-.101v-.37l-.173.37h-.095l-.184-.378v.378h-.1v-.604h.102l.229.47.219-.47h.103ZM547.124 89.683a.2.2 0 1 0-.402 0 .2.2 0 0 0 .402 0m.1 0a.301.301 0 1 1-.602 0 .301.301 0 0 1 .603 0M547.806 89.683c0-.2-.25-.2-.25-.2v.4s.25 0 .25-.2m.1 0c0 .3-.35.3-.35.3h-.1v-.6h.1s.35 0 .35.3M548.217 89.482v.151h.3v.1h-.3v.15h.3v.101h-.4v-.603h.4v.101ZM549.052 89.883v.101h-.324v-.603h.101v.502ZM549.277 89.381h.101v.602h-.101zM549.972 89.984l-.3-.429v.43h-.1v-.604h.101l.301.43v-.43h.1v.603ZM550.803 89.633v.35h-.101v-.04a.302.302 0 1 1-.15-.562c.083 0 .158.034.212.09l-.07.07a.2.2 0 1 0-.142.342c.06 0 .112-.025.15-.067v-.083h-.175v-.1ZM551.667 89.809l-.063-.156-.062.156Zm.04.1h-.204l-.031.076h-.108l.24-.603.24.603h-.107ZM552.416 89.984l-.3-.429v.43h-.101v-.604h.102l.3.43v-.43h.1v.603ZM553.098 89.683c0-.2-.25-.2-.25-.2v.4s.25 0 .25-.2m.1 0c0 .3-.35.3-.35.3h-.101v-.6h.102s.35 0 .35.3M554.111 89.683c0-.2-.251-.2-.251-.2v.4s.251 0 .251-.2m.1 0c0 .3-.351.3-.351.3h-.101v-.6h.101s.351 0 .351.3M554.521 89.482v.151h.302v.1h-.302v.15h.302v.101h-.403v-.603h.403v.101ZM555.033 89.809h.1c.002.05.044.075.089.075.046 0 .087-.027.087-.075 0-.051-.047-.074-.087-.076-.005 0-.047 0-.091-.02a.164.164 0 0 1-.098-.155c0-.107.09-.176.189-.176.104 0 .186.073.187.176h-.1c-.001-.05-.042-.075-.087-.075-.048 0-.088.026-.088.075 0 .05.043.075.088.075.004 0 .046 0 .089.02a.162.162 0 0 1 .098.156c0 .107-.09.176-.187.176-.105-.003-.188-.071-.19-.176M555.603 89.381h.101v.602h-.101ZM556.439 89.633v.35h-.1v-.04a.302.302 0 1 1-.151-.562c.083 0 .158.034.212.09l-.07.07a.2.2 0 1 0-.142.342c.06 0 .113-.025.151-.067v-.083h-.176v-.1ZM557.05 89.984l-.3-.429v.43h-.102v-.604h.102l.301.43v-.43h.1v.603ZM558.137 89.855l-.064-.064.07-.07.065.063a.201.201 0 1 0-.071.071m.137.137-.065-.064a.302.302 0 1 1 .07-.07l.065.063zM558.568 89.856a.305.305 0 0 1-.03-.123v-.352h.1v.352s0 .041.02.081c.026.046.068.07.13.07.064 0 .106-.024.13-.07.02-.04.02-.08.02-.08v-.353h.102v.352a.305.305 0 0 1-.03.123.233.233 0 0 1-.221.128c-.101 0-.18-.045-.221-.128M559.57 89.809l-.064-.156-.062.156Zm.04.1h-.205l-.03.076h-.109l.24-.603.241.603h-.108ZM560.301 89.883v.101h-.324v-.603h.101v.502ZM560.526 89.381h.101v.602h-.101zM560.957 89.482v.151h.301v.1h-.301v.251h-.101v-.603h.402v.101ZM561.468 89.381h.1v.602h-.1zM562.181 89.825l.071.07a.302.302 0 1 1-.213-.515c.084 0 .158.035.213.09l-.07.07a.201.201 0 0 0-.343.142.201.201 0 0 0 .343.142M562.765 89.809l-.063-.156-.062.156Zm.04.1h-.204l-.031.076h-.108l.24-.603.241.603h-.108ZM563.396 89.482h-.151v.502h-.1v-.502h-.151v-.1h.402ZM563.59 89.381h.1v.602h-.1zM564.421 89.683a.2.2 0 1 0-.402 0 .2.2 0 0 0 .402 0m.101 0a.301.301 0 1 1-.602 0 .301.301 0 0 1 .602 0M565.153 89.984l-.299-.429v.43h-.102v-.604h.102l.301.43v-.43h.1v.603Z"/></g><path fill="#231f20" d="M33.285 126.444v.9h7.7l-5.893 12.504h4.149l6.827-14.982H32.157s1.003.245 1.128 1.578M51.66 124.863h-4.982s1.032.257 1.123 1.642v18.265h3.858v-11.159h3.294v-2.53H51.66zM30.056 124.826H10.804s.89.21 1.083 1.373v1.14h13.404l-1.105 3.704H9.767s.895.211 1.1 1.357v1.15h7.939v3.13H11.22s.69.347.69 1.19v1.334h14.419v5.545h3.852v-8.07H22.67v-3.128h8.309v-2.508h-2.673zM93.205 124.863s1.031.257 1.128 1.642v15.61h-9.916v-4.617h-4.981s1.031.25 1.117 1.641v5.494H98.18v-19.77zM66.97 144.067c-1.944 0-3.511-1.87-3.511-4.172 0-2.308 1.567-4.172 3.51-4.172 1.944 0 3.517 1.864 3.517 4.172 0 2.302-1.573 4.172-3.516 4.172m9.044-19.183h-19.24s.883.216 1.083 1.373v1.151h13.41l-.94 5.665h-3.192v-3.35H63.27v3.35h-7.477s.9.205 1.1 1.368v1.14h4.223c-1.089 1.174-1.756 2.69-1.756 4.343 0 3.727 3.38 6.753 7.557 6.753 4.16 0 7.54-3.026 7.54-6.753 0-1.653-.66-3.17-1.75-4.343h4.315v-2.508H74.44z" style="stroke-width:5.69906"/><path fill="#231f20" d="M85.835 126.507c1.773 0 3.22 1.83 3.22 4.075s-1.447 4.069-3.22 4.069c-1.784 0-3.231-1.824-3.231-4.07 0-2.245 1.447-4.074 3.231-4.074m-.188 10.72c3.779 0 6.84-2.912 6.84-6.514 0-3.59-3.061-6.503-6.84-6.503-3.778 0-6.839 2.912-6.839 6.503 0 3.602 3.06 6.514 6.84 6.514" style="stroke-width:5.69906"/><path fill="#d1d3d4" d="M66.198 14.17c-.137 7.688-6.503 13.815-14.236 13.695-7.728-.148-13.883-6.491-13.746-14.18.136-7.682 6.508-13.82 14.242-13.683 7.733.131 13.882 6.48 13.74 14.168" style="stroke-width:5.69906"/><path fill="#ef8a34" d="M62.646 14.17c-.109 5.608-4.765 10.099-10.401 10.013-5.653-.114-10.161-4.741-10.07-10.355.097-5.63 4.781-10.099 10.423-10.013 5.642.114 10.133 4.742 10.048 10.355" style="stroke-width:5.69906"/><path fill="#d1d3d4" d="M84.963 46.49c.148-7.71-6.007-14.048-13.746-14.19-7.716-.148-14.1 5.995-14.236 13.678-.029 1.037.091 2.068.29 3.054.109 1.778.114 7.141-3.493 11.153-1.35 1.174-2.639.297-3.243-.302-2.148-2.382-4-5.858-3.624-10.606.2-.929.33-1.903.336-2.883.137-7.705-6.013-14.043-13.752-14.18-7.74-.13-14.1 6.019-14.23 13.678-.023.98.08 1.92.228 2.833.074 1.937-.035 11.637-8.68 14.789C4.721 64.92.127 70.324.002 76.82-.124 84.509 6.037 90.85 13.759 91c7.734.113 14.106-5.996 14.23-13.684a13.6 13.6 0 0 0-.164-2.474v.013s-.827-6.252 3.18-11.102c.61-.587 1.989-1.624 3.482-.598 2.171 2.308 4.046 5.801 3.596 10.828-.205.952-.342 1.932-.342 2.94-.148 7.677 6.012 14.02 13.74 14.134 7.723.154 14.117-5.967 14.23-13.666a13.09 13.09 0 0 0-.25-2.992l.023.013s-.678-10.173 9.762-14.892l-.057-.018c5.591-1.755 9.672-6.907 9.774-13.01" style="stroke-width:5.69906"/><path fill="#1968a6" d="M71.372 36.116c-5.66-.097-10.31 4.4-10.407 10.002a10.12 10.12 0 0 0 3.203 7.574L55.443 67.74c-1.129-.45-2.32-.69-3.602-.724a10.98 10.98 0 0 0-3.488.542l-8.132-13.69c2.085-1.84 3.425-4.507 3.465-7.465.096-5.654-4.406-10.27-10.054-10.361-5.642-.108-10.298 4.382-10.389 9.996a10.064 10.064 0 0 0 3.214 7.574l-8.725 14.042a10.282 10.282 0 0 0-3.613-.723c-5.642-.086-10.304 4.382-10.412 10.013-.091 5.59 4.4 10.241 10.059 10.355 5.647.086 10.303-4.394 10.389-10.007a10.028 10.028 0 0 0-3.237-7.614l8.708-14.043c1.128.45 2.36.73 3.67.764 1.311.017 2.536-.234 3.67-.627l8.093 13.643a10.15 10.15 0 0 0-3.63 7.586c-.097 5.642 4.394 10.281 10.053 10.378 5.653.102 10.304-4.4 10.412-10.002a10.238 10.238 0 0 0-3.237-7.625l8.685-14.031c1.14.439 2.383.73 3.665.735 5.659.108 10.315-4.377 10.406-9.968.091-5.63-4.4-10.27-10.041-10.372" style="stroke-width:5.69906"/><path fill="#231f20" d="M108.549 145.435v-3.5h18.658l1.374-17.267h-18.163s.792-2.588-1.117-3.494h25.144l-1.767 20.762h2.97v3.613zM145.617 124.629h-7.067s.49-2.758-1.692-3.317h13.21v10.726h-7.21v4.53h9.324v-13.7s.205-1.288-.986-1.704h6.001v7.768h1.841v-6.491s-.148-.861-.775-1.277h5.939v26.928h-4.879v-15.843h-1.909v15.626h-4.947v-8.263h-14.19v-8.908s-.223-1.06-1.568-1.556h8.976zM178.705 124.35h-3.397l-2.052 6.639h5.511zm-10.965 9.887s-.354-3.043-1.55-3.322h2.547l2.325-6.423h-3.528s.205-2.61-1.493-3.317h19.08v3.317h-1.903v6.292h4.03v-7.563s.347-1.34-1.14-2.046h6.149v26.7h-5.158v-8.19H169.58s.069-2.969-1.048-3.316h18.567v-2.274h-19.217M197.846 141.233l7.848-16.744h-10.258s-.063-2.832-1.613-3.316h18.864l-9.187 20.06zM220.18 121.31v26.706h-4.958v-25.36s-.701-1.277-1.693-1.414z" style="stroke-width:5.69906"/><path fill="#272218" d="M231.21 120.101h6.644l10.242 10.885h-6.646l-5.368-5.51-5.517 5.436h-6.85l8.127-8.19s.707-2.62-.633-2.62M222.796 132.19h26.558v3.329h-11.022v1.83h8.84v7.847h-17.81v1.692h17.74V150H224.49v-5.517s-.502-1.692-1.693-2.25h19.428v-1.494h-17.667s-.21-3.106-1.903-3.522h10.589v-1.772h-10.59z" style="stroke-width:5.69906"/><path fill="#231f20" d="M231.21 120.101h6.644l10.242 10.885h-6.646l-5.368-5.51-5.517 5.436h-6.85l8.127-8.19s.707-2.62-.633-2.62M222.796 132.19h26.558v3.329h-11.022v1.83h8.84v7.847h-17.81v1.692h17.74V150H224.49v-5.517s-.502-1.692-1.693-2.25h19.428v-1.494h-17.667s-.21-3.106-1.903-3.522h10.589v-1.772h-10.59zM255.23 141.233h-5.016l5.158-16.744h-4.594s-.205-2.969-1.818-3.39h18.573v3.18h-5.796l8.338 12.287V122.79s-.57-1.27-1.345-1.55h6.429v4.371h4.661v3.545h-4.587v18.795h-5.306v-4.32l-10.458-15.182Z" style="stroke-width:5.69906"/><path fill="#231f20" d="M300.53 128.864h-8.263l-6.155 7.357h14.418v-2.2h-8.332v-3.105h8.264zm-19.565-4.371s-.296-2.907-1.635-3.328h19.291l-3.248 4.45h5.647v-2.895s-.49-1.407-1.265-1.555h5.876v26.928h-5.032v-8.623H282.8v-2.696h-3.613l10.39-12.139z" style="stroke-width:5.69906"/><path fill="#808285" d="M117.266 110.432c-.496.24-.992.445-1.579.627-.581.165-1.14.25-1.641.25-.701 0-1.334-.085-1.892-.301a3.68 3.68 0 0 1-1.459-.89 3.92 3.92 0 0 1-.946-1.538c-.234-.604-.33-1.322-.33-2.143 0-1.482.41-2.679 1.219-3.54.82-.854 1.978-1.287 3.408-1.287.484 0 .986.063 1.533.188a7.582 7.582 0 0 1 1.687.667v1.453h-.12c-.114-.085-.285-.211-.524-.399a4.523 4.523 0 0 0-.684-.393 4.326 4.326 0 0 0-.923-.33 5.276 5.276 0 0 0-1.174-.132c-.992 0-1.767.33-2.36 1.015-.558.683-.843 1.59-.843 2.74 0 1.203.285 2.132.889 2.816.593.678 1.43 1.015 2.462 1.015.359 0 .735-.057 1.117-.131a4.283 4.283 0 0 0 1.009-.314v-2.285h-2.377v-1.1h3.528z" style="stroke-width:5.69906"/><path fill="none" stroke="#808285" stroke-width="0.763672" d="M117.175 110.358c-.479.234-.969.439-1.545.615a5.957 5.957 0 0 1-1.601.246c-.684 0-1.3-.086-1.847-.297a3.623 3.623 0 0 1-1.424-.872c-.41-.41-.713-.911-.924-1.51-.228-.593-.324-1.3-.324-2.103 0-1.447.398-2.627 1.19-3.47.804-.838 1.938-1.266 3.329-1.266.479 0 .963.057 1.499.188.501.131 1.048.331 1.647.65v1.425h-.12c-.108-.08-.273-.2-.513-.382-.21-.16-.433-.28-.66-.387a4.499 4.499 0 0 0-.907-.331 5.03 5.03 0 0 0-1.146-.125c-.968 0-1.726.324-2.302.997-.547.667-.826 1.556-.826 2.684 0 1.18.279 2.097.872 2.764.57.667 1.39.997 2.405.997a5.72 5.72 0 0 0 1.088-.13c.382-.075.69-.177.98-.308v-2.24h-2.32v-1.083h3.449z"/><path fill="#808285" d="M124.415 105.404h-.046a1.856 1.856 0 0 0-.496-.08 2.716 2.716 0 0 0-.552-.051c-.325 0-.667.097-.998.256-.319.16-.627.37-.929.627v4.975h-1.105v-7.01h1.105v1.015c.433-.36.844-.627 1.18-.775a2.3 2.3 0 0 1 1.009-.24h.444c.086.029.205.029.388.08z" style="stroke-width:5.69906"/><path fill="none" stroke="#808285" stroke-width="0.763672" d="M124.323 105.462h-.045a1.67 1.67 0 0 0-.468-.08 2.998 2.998 0 0 0-.536-.051c-.313 0-.638.096-.946.25-.307.16-.598.36-.889.61v4.85h-1.06v-6.827h1.06v.98c.41-.342.804-.604 1.123-.747.325-.154.633-.233.969-.233h.422c.08.028.2.028.37.08z"/><path fill="#808285" d="M128.274 104.974h-.097c-.285 0-.615.052-.974.137-.36.074-.73.177-1.129.33h-.051v-1.185c.205-.057.536-.13.94-.205.416-.057.827-.114 1.214-.114h.097zm0 6.286a4.74 4.74 0 0 1-.69.052c-.62 0-1.094-.2-1.532-.622-.41-.421-.616-.946-.616-1.59 0-.552.103-.968.336-1.299.211-.313.513-.576.924-.798.381-.177.866-.296 1.43-.348.051 0 .103-.034.148-.034v.975c-.25.051-.456.08-.61.125-.33.103-.587.25-.792.439-.176.21-.29.49-.29.866 0 .388.113.696.336.878.233.205.598.313 1.06.313.102 0 .2 0 .296-.028zm2.804-.125h-1.14v-.764c-.097.08-.228.188-.376.32-.182.108-.336.216-.496.29-.2.097-.41.182-.632.256-.057 0-.103.023-.16.023v-1.071c.285-.029.542-.097.77-.206.336-.159.62-.37.894-.598v-1.926c-.319 0-.729.057-1.196.08-.166.028-.337.028-.468.057v-.975a27.91 27.91 0 0 1 1.664-.13v-.178c0-.262-.022-.495-.12-.678a.866.866 0 0 0-.392-.416 1.57 1.57 0 0 0-.559-.194c-.177-.017-.382-.05-.593-.05v-1.038c.416 0 .792.057 1.129.13.336.086.638.212.889.417.233.182.439.439.575.758.131.29.211.684.211 1.117z" style="stroke-width:5.69906"/><path fill="none" stroke="#808285" stroke-width="0.763672" d="M130.983 111.046h-1.1v-.741c-.091.08-.222.182-.365.308-.176.102-.325.21-.478.285a4.853 4.853 0 0 1-.61.25c-.057 0-.097.018-.16.018v-1.037a2.19 2.19 0 0 0 .747-.205c.325-.154.598-.36.866-.582v-1.88c-.308 0-.706.051-1.157.08-.16.028-.325.028-.456.056v-.951a26.256 26.256 0 0 1 1.613-.126v-.176c0-.257-.023-.485-.114-.661a.907.907 0 0 0-.382-.41 1.474 1.474 0 0 0-.54-.177c-.172-.018-.371-.057-.577-.057v-1.009c.405 0 .77.051 1.1.125.32.086.616.206.855.41.228.172.428.423.553.736.131.28.205.667.205 1.089zm-2.713.12c-.188.028-.41.056-.667.056-.598 0-1.054-.2-1.481-.61-.4-.404-.604-.923-.604-1.55 0-.54.102-.946.33-1.265.194-.307.502-.564.895-.775.37-.176.843-.29 1.39-.347.046 0 .097-.029.137-.029v.952c-.24.045-.433.074-.592.12a2.057 2.057 0 0 0-.77.433c-.165.2-.273.473-.273.837 0 .382.108.679.319.861.228.2.575.302 1.026.302.102 0 .2 0 .29-.034zm0-6.127h-.091c-.28 0-.593.057-.952.126-.347.08-.7.176-1.083.33h-.056v-1.157c.2-.051.524-.13.917-.205a8.624 8.624 0 0 1 1.174-.102h.091z"/><path fill="#808285" d="M135.752 111.26c-.353 0-.661-.035-.929-.126a2.65 2.65 0 0 1-.855-.37v2.951h-1.1v-9.591h1.1v.724c.314-.262.644-.485.997-.673a4.17 4.17 0 0 1 .787-.24v1.095c-.28.029-.587.103-.855.234-.313.136-.615.347-.929.58v3.962c.314.165.599.262.827.313.216.04.478.069.763.069h.194zm2.93-3.717a4.82 4.82 0 0 1-.24 1.556 3.335 3.335 0 0 1-.661 1.197c-.25.314-.564.553-.918.712-.325.183-.712.251-1.111.251v-1.071c.53-.052.946-.251 1.26-.644.336-.445.518-1.1.518-1.978 0-.843-.13-1.487-.416-1.898-.28-.427-.684-.638-1.254-.638h-.108v-1.094c.137 0 .262-.023.399-.023.78 0 1.425.314 1.863.958.428.638.667 1.516.667 2.672" style="stroke-width:5.69906"/><path fill="none" stroke="#808285" stroke-width="0.763672" d="M138.59 107.575c0 .559-.074 1.066-.233 1.528a3.28 3.28 0 0 1-.633 1.174c-.25.302-.553.541-.895.695-.313.177-.695.245-1.077.245v-1.048c.513-.052.918-.246 1.22-.627.325-.44.501-1.083.501-1.944 0-.826-.125-1.459-.404-1.858-.268-.416-.656-.626-1.214-.626h-.103v-1.066c.131 0 .257-.029.382-.029.764 0 1.385.314 1.812.94.41.628.644 1.488.644 2.616zm-2.838 3.642c-.342 0-.638-.046-.9-.12-.28-.085-.559-.182-.827-.364v2.89h-1.066v-9.399h1.066v.718c.296-.262.621-.478.969-.666.245-.097.49-.183.758-.228v1.065c-.268.029-.57.103-.826.228-.302.143-.604.33-.9.565v3.886c.295.154.575.257.803.302.21.046.461.069.735.069h.188z"/><path fill="#808285" d="M145.788 111.133h-1.117v-3.99c0-.347 0-.626-.046-.917a2.021 2.021 0 0 0-.188-.672 1.402 1.402 0 0 0-.439-.393 1.825 1.825 0 0 0-.712-.131c-.308 0-.644.08-.946.233a5.87 5.87 0 0 0-.975.627v5.243h-1.1v-9.78h1.1v3.551a5.96 5.96 0 0 1 1.072-.73c.387-.182.78-.261 1.145-.261.73 0 1.271.239 1.647.678.348.467.559 1.122.559 1.972z" style="stroke-width:5.69906"/><path fill="none" stroke="#808285" stroke-width="0.763672" d="M145.696 111.042h-1.083v-3.915c0-.337 0-.61-.045-.9a2.007 2.007 0 0 0-.177-.662 1.3 1.3 0 0 0-.422-.382 1.736 1.736 0 0 0-.695-.13c-.29 0-.621.08-.917.227-.32.177-.627.365-.935.621v5.141h-1.066v-9.597h1.066v3.482a5.28 5.28 0 0 1 1.037-.712 2.581 2.581 0 0 1 1.106-.257c.707 0 1.23.234 1.59.661.342.462.541 1.106.541 1.938z"/><path fill="#808285" d="M147.632 102.944h1.26v-1.231h-1.26zm.052 8.19h1.134v-7.01h-1.134z" style="stroke-width:5.69906"/><path fill="none" stroke="#808285" stroke-width="0.763672" d="M147.73 103.01h1.07v-1.203h-1.07zm1.008 8.03h-.969v-6.873h.969z"/><path fill="#808285" d="M155.712 110.691a7.516 7.516 0 0 1-1.043.445 3.95 3.95 0 0 1-1.071.148c-.462 0-.906-.068-1.31-.233a2.34 2.34 0 0 1-1.027-.673c-.29-.29-.513-.678-.66-1.151-.166-.445-.234-.992-.234-1.59 0-1.151.268-2.063.86-2.719.627-.644 1.385-.98 2.371-.98.365 0 .747.046 1.117.188.365.097.695.234.997.405v1.31h-.045a4.537 4.537 0 0 0-1.055-.655c-.359-.125-.712-.21-1.07-.21-.616 0-1.14.21-1.494.683-.336.45-.524 1.089-.524 1.978 0 .826.188 1.487.524 1.92.353.479.855.69 1.493.69.228 0 .462-.034.684-.086.245-.074.444-.148.644-.262.165-.074.313-.182.462-.25.125-.114.262-.188.336-.268h.045z" style="stroke-width:5.69906"/><path fill="none" stroke="#808285" stroke-width="0.763672" d="M155.62 110.615c-.347.176-.689.33-1.008.433-.33.097-.684.148-1.032.148-.45 0-.872-.074-1.27-.234a2.246 2.246 0 0 1-.987-.655 2.644 2.644 0 0 1-.638-1.117c-.16-.433-.228-.969-.228-1.556 0-1.117.262-2.012.838-2.65.604-.621 1.333-.952 2.285-.952.348 0 .724.046 1.077.177.354.097.673.233.963.399v1.27h-.045a4.28 4.28 0 0 0-1.015-.632 3.05 3.05 0 0 0-1.037-.205c-.592 0-1.1.205-1.442.667-.324.439-.507 1.06-.507 1.926 0 .804.183 1.453.507 1.875.342.467.827.673 1.442.673.222 0 .445-.035.661-.086.234-.068.428-.142.622-.25.165-.075.302-.177.45-.251.12-.108.245-.183.319-.257h.045z"/><path fill="#808285" d="M168.022 102.86h-3.146v8.274h-1.174v-8.275h-3.157v-1.1h7.477z" style="stroke-width:5.69906"/><path fill="none" stroke="#808285" stroke-width="0.763672" d="M167.93 102.929h-3.071v8.115h-1.146v-8.115h-3.077v-1.077h7.294z"/><path fill="#808285" d="M170.296 107.745h-1.898c0 .41.074.803.205 1.122.097.308.28.593.49.781.194.2.457.365.736.462.16.051.308.074.467.102v1.049c-.878-.08-1.567-.393-2.103-.918-.615-.627-.923-1.533-.923-2.678 0-1.146.308-2.063.9-2.741.53-.622 1.248-.958 2.126-1.015v.997c-.547.018-.957.206-1.288.536a2.26 2.26 0 0 0-.61 1.385h1.898zm0 2.467c.148.04.29.057.45.057.462 0 .9-.108 1.362-.285.456-.21.793-.387.97-.57h.08v1.277c-.388.177-.782.313-1.152.444a5.466 5.466 0 0 1-1.231.154c-.188 0-.33 0-.479-.028zm2.986-2.467h-2.986v-.918h1.892c0-.633-.16-1.094-.439-1.43-.285-.342-.746-.49-1.327-.49h-.126v-.998h.2c.889 0 1.567.29 2.046.838.484.536.74 1.328.74 2.354z" style="stroke-width:5.69906"/><path fill="none" stroke="#808285" stroke-width="0.763672" d="M173.192 107.74h-2.895v-.894h1.83c0-.61-.148-1.066-.422-1.39-.274-.331-.73-.485-1.288-.485h-.12v-.963h.194c.855 0 1.516.285 1.983.815.468.524.718 1.293.718 2.29zm-2.895 2.4c.148.028.285.057.433.057.45 0 .878-.103 1.328-.28.44-.205.764-.387.93-.558h.085v1.248a9.333 9.333 0 0 1-1.117.428 4.825 4.825 0 0 1-1.197.154c-.177 0-.314 0-.462-.029zm0-2.4h-1.835c0 .4.069.781.194 1.09.102.307.268.58.473.763.188.194.439.359.712.45.154.051.308.068.456.097v1.02c-.855-.068-1.516-.376-2.04-.889-.598-.61-.889-1.493-.889-2.604 0-1.117.29-2.012.866-2.679.525-.598 1.208-.929 2.063-.98v.963c-.53.018-.923.205-1.248.53-.342.365-.553.81-.587 1.345h1.835z"/><path fill="#808285" d="M179.73 110.691c-.335.183-.626.337-.94.445-.29.097-.592.148-.923.148-.433 0-.815-.074-1.15-.233a2.035 2.035 0 0 1-.913-.673c-.256-.29-.444-.678-.587-1.151-.154-.45-.216-.992-.216-1.59 0-1.151.268-2.063.786-2.719.519-.644 1.226-.98 2.08-.98.331 0 .65.046.998.188.302.097.604.234.866.405v1.31h-.057a4.142 4.142 0 0 0-.929-.655c-.313-.13-.61-.21-.923-.21-.564 0-.997.21-1.322.683-.33.45-.479 1.089-.479 1.978 0 .826.148 1.487.462 1.92.319.479.775.69 1.339.69.205 0 .393-.034.61-.086.2-.074.387-.148.535-.262.16-.074.297-.182.4-.25.142-.114.233-.188.307-.268h.057z" style="stroke-width:5.69906"/><path fill="none" stroke="#808285" stroke-width="0.763672" d="M179.64 110.615c-.325.176-.604.33-.906.433-.274.097-.57.148-.884.148-.421 0-.786-.074-1.111-.234a1.92 1.92 0 0 1-.872-.655c-.25-.28-.427-.661-.564-1.117-.148-.439-.211-.969-.211-1.556 0-1.117.262-2.012.758-2.65.496-.621 1.174-.952 2-.952.314 0 .621.046.952.177.296.097.587.233.838.399v1.27h-.057a3.875 3.875 0 0 0-.89-.632 2.196 2.196 0 0 0-.888-.205c-.542 0-.963.205-1.271.667-.314.439-.462 1.06-.462 1.926 0 .804.148 1.453.45 1.875.302.467.741.673 1.283.673.193 0 .382-.035.587-.086.193-.068.37-.142.513-.25.154-.075.285-.177.387-.251.137-.108.222-.183.29-.257h.058z"/><path fill="#808285" d="M186.67 111.133h-1.048v-3.99c0-.347 0-.626-.057-.917a1.927 1.927 0 0 0-.165-.672 1.28 1.28 0 0 0-.422-.393 1.592 1.592 0 0 0-.667-.131c-.279 0-.598.08-.923.233-.28.177-.593.37-.889.627v5.243h-1.037v-9.78h1.037v3.551a5.22 5.22 0 0 1 1.014-.73c.37-.182.719-.261 1.083-.261.684 0 1.186.239 1.55.672.342.473.525 1.128.525 1.978z" style="stroke-width:5.69906"/><path fill="none" stroke="#808285" stroke-width="0.763672" d="M186.579 111.042h-1.009v-3.915c0-.337 0-.61-.057-.9a2.201 2.201 0 0 0-.16-.662 1.202 1.202 0 0 0-.404-.387 1.596 1.596 0 0 0-.644-.126c-.273 0-.581.08-.895.228-.262.177-.564.365-.854.621v5.14h-1.01v-9.596h1.01v3.482c.33-.308.655-.53.974-.713a2.324 2.324 0 0 1 1.043-.256c.667 0 1.151.233 1.499.661.33.462.507 1.106.507 1.938z"/><path fill="#808285" d="M193.882 111.133h-1.134v-3.99c0-.347-.023-.626-.045-.917a1.588 1.588 0 0 0-.2-.672c-.074-.148-.228-.29-.405-.393a1.952 1.952 0 0 0-.723-.131c-.32 0-.627.08-.975.233-.33.177-.638.37-.946.627v5.243h-1.1v-7.01h1.1v.781c.353-.319.718-.541 1.077-.73a2.62 2.62 0 0 1 1.146-.261c.723 0 1.253.239 1.64.672.366.473.565 1.128.565 1.978z" style="stroke-width:5.69906"/><path fill="none" stroke="#808285" stroke-width="0.763672" d="M193.79 111.042h-1.1v-3.887c0-.342-.017-.61-.04-.895a1.512 1.512 0 0 0-.193-.655c-.074-.148-.222-.285-.388-.388a1.983 1.983 0 0 0-.706-.125c-.302 0-.61.08-.94.228a5.45 5.45 0 0 0-.912.616v5.106h-1.066v-6.833h1.066v.763c.336-.313.69-.53 1.037-.712.376-.177.74-.256 1.111-.256.701 0 1.214.233 1.584.655.354.462.548 1.1.548 1.932z"/><path fill="#808285" d="M198.11 111.313c-.941 0-1.688-.302-2.218-.986-.564-.65-.855-1.556-.855-2.707 0-1.151.291-2.035.855-2.713.53-.65 1.277-.986 2.217-.986v1.009c-.604 0-1.071.233-1.407.678-.325.445-.513 1.117-.513 2.012 0 .883.188 1.567.513 1.994.336.462.803.69 1.407.69zm3.02-3.693c0 1.151-.274 2.057-.844 2.707-.547.684-1.254.986-2.177.986v-1.009c.593 0 1.055-.21 1.362-.69.33-.427.508-1.11.508-1.994 0-.895-.177-1.567-.508-2.012-.307-.444-.77-.678-1.362-.678v-1.009c.923 0 1.63.336 2.177.986.57.678.844 1.562.844 2.713" style="stroke-width:5.69906"/><path fill="none" stroke="#808285" stroke-width="0.763672" d="M201.039 107.62c0 1.122-.268 2.006-.821 2.638-.53.667-1.208.963-2.109.963v-.986c.576 0 1.02-.205 1.317-.672.325-.416.496-1.083.496-1.943 0-.872-.172-1.528-.496-1.96-.297-.434-.741-.662-1.317-.662v-.992c.9 0 1.579.331 2.109.97.553.66.82 1.52.82 2.644zm-2.93 3.601c-.917 0-1.635-.296-2.148-.963-.559-.632-.832-1.516-.832-2.638 0-1.123.273-1.984.832-2.645.513-.638 1.23-.98 2.148-.98v1.003c-.587 0-1.043.222-1.362.661-.319.428-.501 1.089-.501 1.96 0 .855.182 1.528.501 1.944.32.439.775.667 1.362.667z"/><path fill="#808285" d="M202.303 111.133h1.1v-9.78h-1.1z" style="stroke-width:5.69906"/><path fill="none" stroke="#808285" stroke-width="0.763672" d="M203.303 111.041h-.912v-9.597h.912z"/><path fill="#808285" d="M208.024 111.313c-.94 0-1.692-.302-2.222-.986-.564-.65-.85-1.556-.85-2.707 0-1.151.286-2.035.85-2.713.53-.65 1.282-.986 2.222-.986v1.009c-.61 0-1.071.233-1.402.678-.336.445-.524 1.117-.524 2.012 0 .883.188 1.567.524 1.994.331.462.793.69 1.402.69zm3.055-3.693c0 1.151-.285 2.057-.843 2.707-.547.684-1.283.986-2.212.986v-1.009c.587 0 1.055-.21 1.391-.69.325-.427.507-1.11.507-1.994 0-.895-.182-1.567-.507-2.012-.336-.444-.804-.678-1.39-.678v-1.009c.928 0 1.664.336 2.21.986.56.678.844 1.562.844 2.713" style="stroke-width:5.69906"/><path fill="none" stroke="#808285" stroke-width="0.763672" d="M210.987 107.62c0 1.122-.279 2.006-.82 2.638-.53.667-1.237.963-2.143.963v-.986c.57 0 1.026-.205 1.345-.672.325-.416.496-1.083.496-1.943 0-.872-.171-1.528-.496-1.96-.32-.434-.775-.662-1.345-.662v-.992c.906 0 1.613.331 2.143.97.541.66.82 1.52.82 2.644zm-2.963 3.601c-.918 0-1.641-.296-2.154-.963-.547-.632-.827-1.516-.827-2.638 0-1.123.28-1.984.827-2.645.513-.638 1.236-.98 2.154-.98v1.003c-.593 0-1.037.222-1.362.661-.325.428-.502 1.089-.502 1.96 0 .855.177 1.528.502 1.944.325.439.77.667 1.362.667z"/><path fill="#808285" d="M215.443 111.009c-.102 0-.233.017-.359.017-.78 0-1.407-.307-1.869-.911-.456-.593-.684-1.454-.684-2.548 0-.61.074-1.128.228-1.561.143-.45.382-.81.639-1.157.256-.285.598-.513.946-.673.353-.182.74-.262 1.1-.262v1.071c-.508.052-.94.257-1.249.65-.359.439-.541 1.072-.541 1.91 0 .769.114 1.373.405 1.766.262.41.695.627 1.282.627h.102zm0 2.764c-.08.023-.16.023-.233.023-.336 0-.69-.023-1.015-.086a5.035 5.035 0 0 1-.98-.233v-1.197h.052c.176.085.467.154.877.296.376.103.792.154 1.169.154h.13zm2.89-3.448c0 1.197-.262 2.063-.77 2.639-.455.484-1.18.78-2.12.809v-1.043a2 2 0 0 0 .815-.154c.234-.085.44-.21.57-.399.143-.16.257-.365.308-.598a3.78 3.78 0 0 0 .074-.753v-.655c-.342.28-.638.502-.952.655-.233.103-.501.16-.815.183v-1.072c.285-.034.582-.08.861-.216.33-.126.644-.308.906-.507v-3.847a6.8 6.8 0 0 0-.826-.308 4.23 4.23 0 0 0-.764-.074h-.176v-1.072c.381 0 .695.057.94.131.25.08.547.211.826.37l.074-.29h1.049z" style="stroke-width:5.69906"/><path fill="none" stroke="#808285" stroke-width="0.763672" d="M218.24 110.297c0 1.174-.251 2.023-.741 2.588-.445.478-1.14.775-2.058.798v-1.02a2 2 0 0 0 .792-.155c.223-.08.428-.21.553-.393.137-.154.245-.359.296-.587.04-.233.069-.45.069-.74v-.645c-.325.28-.616.49-.918.644a2.35 2.35 0 0 1-.792.183v-1.049c.28-.04.564-.085.832-.21.325-.132.627-.303.878-.502v-3.779a7.373 7.373 0 0 0-.792-.302 4.043 4.043 0 0 0-.747-.074h-.171v-1.048c.37 0 .678.056.918.13.239.075.524.206.792.36l.074-.285h1.014zm-2.799 3.386c-.08.028-.142.028-.222.028a6.263 6.263 0 0 1-1.932-.308v-1.185h.051c.177.08.445.154.85.29a4.48 4.48 0 0 0 1.128.154h.125zm0-2.713c-.091 0-.222.028-.342.028-.763 0-1.362-.313-1.812-.906-.439-.587-.655-1.43-.655-2.502 0-.598.062-1.105.216-1.533.137-.433.37-.792.616-1.134.245-.273.575-.501.917-.655a2.268 2.268 0 0 1 1.06-.257v1.043c-.49.052-.906.257-1.208.644-.342.439-.524 1.049-.524 1.864 0 .77.12 1.356.399 1.744.25.404.672.615 1.242.615h.091z"/><path fill="#808285" d="m226.702 104.123-3.858 9.591h-1.19l1.236-2.918-2.633-6.673h1.202l2.012 5.186 2.08-5.186z" style="stroke-width:5.69906"/><path fill="none" stroke="#808285" stroke-width="0.763672" d="m226.571 104.214-3.704 9.404h-1.14l1.186-2.861-2.53-6.543h1.156l1.932 5.09 1.995-5.09z"/><path fill="#808285" d="M234.469 111.313c-.616 0-1.18-.091-1.682-.302a3.848 3.848 0 0 1-1.305-.975 4.814 4.814 0 0 1-.82-1.516 7.61 7.61 0 0 1-.285-2.08c0-.752.114-1.43.285-2.029a5.12 5.12 0 0 1 .837-1.573c.342-.416.77-.723 1.288-.929.502-.216 1.066-.313 1.682-.313v1.071c-.895 0-1.59.302-2.098.98-.513.656-.77 1.596-.77 2.793 0 1.248.257 2.183.77 2.85.542.638 1.231.957 2.098.957zm4.274 2.12c-.228.045-.462.102-.678.125-.234.018-.502.018-.73.018-.684 0-1.225-.171-1.664-.587-.405-.393-.638-.969-.667-1.698-.097 0-.17.022-.268.022h-.267v-1.065c.872 0 1.595-.32 2.091-.958.524-.667.775-1.601.775-2.85 0-1.196-.25-2.137-.775-2.792-.496-.678-1.185-.98-2.091-.98v-1.072c.644 0 1.202.097 1.72.314.485.228.924.541 1.272.929.37.427.632.94.82 1.55.177.621.285 1.3.285 2.052 0 1.156-.24 2.103-.66 2.895-.445.775-1.032 1.333-1.768 1.675.023.462.126.827.308 1.083.205.268.559.399 1.106.399.148 0 .325-.034.558-.074.217-.057.376-.114.479-.137h.154z" style="stroke-width:5.69906"/><path fill="none" stroke="#808285" stroke-width="0.763672" d="M238.654 113.344c-.228.045-.456.097-.667.125-.228.018-.49.018-.712.018-.667 0-1.197-.171-1.624-.581-.4-.388-.627-.958-.662-1.676-.09 0-.165.028-.256.028h-.262v-1.048c.855 0 1.561-.314 2.046-.946.513-.656.758-1.573.758-2.804 0-1.18-.245-2.109-.758-2.753-.485-.667-1.163-.963-2.046-.963v-1.06c.632 0 1.18.097 1.687.314.467.222.9.53 1.236.911.365.422.622.93.804 1.533.177.61.28 1.277.28 2.018 0 1.134-.234 2.074-.645 2.85-.439.763-1.008 1.31-1.727 1.646.023.456.12.815.297 1.066.205.268.547.4 1.083.4.142 0 .319-.035.547-.08.21-.052.364-.11.467-.132h.154zm-4.183-2.086c-.604 0-1.157-.091-1.647-.302a3.693 3.693 0 0 1-1.277-.958 4.415 4.415 0 0 1-.798-1.487 7.396 7.396 0 0 1-.285-2.052c0-.74.114-1.407.285-1.994a4.761 4.761 0 0 1 .815-1.556c.33-.405.753-.713 1.26-.912.49-.217 1.043-.314 1.647-.314v1.06c-.878 0-1.556.297-2.046.964-.507.644-.758 1.573-.758 2.752 0 1.231.25 2.155.758 2.804.524.644 1.197.946 2.046.946z"/><path fill="#808285" d="M245.33 111.133h-1.122v-.792c-.36.325-.741.564-1.066.741a2.753 2.753 0 0 1-1.14.234c-.678 0-1.242-.206-1.635-.679-.377-.444-.548-1.105-.548-1.989v-4.525h1.083v3.984c0 .359.04.65.057.918.023.256.108.473.211.643a.8.8 0 0 0 .416.394c.171.102.399.13.73.13.279 0 .592-.08.951-.221.33-.172.656-.377.94-.605v-5.243h1.123z" style="stroke-width:5.69906"/><path fill="none" stroke="#808285" stroke-width="0.763672" d="M245.24 111.047h-1.09v-.77a5.068 5.068 0 0 1-1.03.718 2.549 2.549 0 0 1-1.1.228c-.656 0-1.198-.2-1.58-.66-.364-.434-.53-1.072-.53-1.938v-4.411h1.05v3.886c0 .348.033.633.056.895.018.245.103.456.2.627a.777.777 0 0 0 .404.382c.166.097.388.125.701.125.274 0 .582-.08.923-.216.314-.166.633-.365.907-.587v-5.112h1.088z"/><path fill="#808285" d="M249.808 104.974h-.068c-.325 0-.65.052-1.015.137a6.447 6.447 0 0 0-1.1.33h-.05v-1.185c.21-.057.518-.13.917-.205.416-.057.826-.114 1.248-.114h.068zm0 6.286a5.237 5.237 0 0 1-.695.052c-.593 0-1.106-.2-1.51-.622-.4-.421-.616-.946-.616-1.59 0-.552.103-.968.302-1.299.234-.313.547-.576.923-.798.41-.177.9-.296 1.465-.348.063 0 .074-.034.131-.034v.975c-.24.051-.444.08-.621.125-.308.103-.564.25-.775.439-.2.21-.274.49-.274.866 0 .388.103.696.33.878.229.205.582.313 1.055.313.103 0 .217 0 .285-.028zm2.781-.125h-1.1v-.764c-.097.08-.228.188-.41.32a3.61 3.61 0 0 1-.484.29 3.317 3.317 0 0 1-.633.256c-.057 0-.108 0-.154.023v-1.071c.28-.029.53-.097.787-.206a5.1 5.1 0 0 0 .894-.598v-1.926c-.33 0-.746.057-1.202.08-.171.028-.325.028-.479.057v-.975c.53-.057 1.094-.102 1.681-.13v-.178c0-.262-.04-.495-.13-.678-.098-.16-.229-.325-.388-.416a1.7 1.7 0 0 0-.559-.194c-.2-.017-.399-.05-.604-.05v-1.038c.428 0 .815.057 1.123.13.359.086.638.212.883.417.262.182.445.439.57.758.154.29.205.684.205 1.117z" style="stroke-width:5.69906"/><path fill="none" stroke="#808285" stroke-width="0.763672" d="M252.495 110.994h-1.06v-.736c-.091.08-.222.177-.393.308a6.26 6.26 0 0 1-.479.285 3.302 3.302 0 0 1-.61.245c-.051 0-.102 0-.148.018v-1.032a2.66 2.66 0 0 0 .758-.2c.302-.153.604-.358.872-.58v-1.864c-.319 0-.724.051-1.162.08-.166.023-.32.023-.468.051v-.94c.513-.057 1.06-.103 1.63-.131v-.171c0-.25-.045-.479-.125-.656a1.278 1.278 0 0 0-.376-.404 1.51 1.51 0 0 0-.542-.177c-.194-.017-.387-.057-.587-.057v-1.003c.416 0 .787.057 1.083.126.353.085.621.205.86.404.257.177.428.422.548.735.154.274.2.662.2 1.078zm-2.69.12a4.693 4.693 0 0 1-.667.056c-.575 0-1.065-.2-1.458-.604-.394-.405-.599-.917-.599-1.539 0-.541.097-.94.29-1.26.234-.301.525-.558.901-.769.393-.176.866-.29 1.408-.341.063 0 .068-.029.125-.029v.94c-.222.052-.421.075-.598.12a2.047 2.047 0 0 0-.747.433c-.188.2-.256.468-.256.832 0 .376.091.673.32.85.21.199.563.301 1.008.301.102 0 .21 0 .273-.028zm0-6.082h-.062c-.308 0-.627.057-.98.126-.343.08-.69.177-1.066.325h-.046v-1.146c.2-.057.496-.13.889-.21a9.312 9.312 0 0 1 1.203-.098h.062z"/><path fill="#808285" d="M254.187 111.133h1.094v-9.78h-1.094z" style="stroke-width:5.69906"/><path fill="none" stroke="#808285" stroke-width="0.763672" d="M255.188 111.041h-.912v-9.597h.912z"/><path fill="#808285" d="M256.78 102.944h1.26v-1.231h-1.26zm.08 8.19h1.1v-7.01h-1.1z" style="stroke-width:5.69906"/><path fill="none" stroke="#808285" stroke-width="0.763672" d="M256.87 103.01h1.076v-1.203h-1.077zm1.002 8.03h-.94v-6.873h.94z"/><path fill="#808285" d="M264.046 102.509h-.051c-.12-.057-.28-.086-.456-.137-.205-.018-.382-.046-.542-.046-.45 0-.815.097-1.026.342-.21.2-.324.622-.324 1.226v.228h1.989v.991h-1.967v6.019h-1.094v-6.019h-.746v-.991h.746v-.228c0-.844.205-1.488.587-1.938.382-.439.946-.678 1.681-.678.268 0 .48.023.684.051.189.035.37.057.519.086z" style="stroke-width:5.69906"/><path fill="none" stroke="#808285" stroke-width="0.763672" d="M263.954 102.577h-.045c-.12-.057-.274-.08-.44-.13-.199-.024-.364-.047-.518-.047-.433 0-.78.097-.98.331-.205.2-.308.61-.308 1.203v.228h1.898v.968h-1.875v5.91h-1.054v-5.91h-.713v-.968h.713v-.228c0-.827.2-1.46.564-1.904.365-.422.906-.661 1.607-.661.257 0 .456.023.655.051.177.035.354.057.496.08z"/><path fill="#808285" d="M265.705 102.944h1.26v-1.231h-1.26zm.091 8.19h1.089v-7.01h-1.089z" style="stroke-width:5.69906"/><path fill="none" stroke="#808285" stroke-width="0.763672" d="M265.798 103.01h1.083v-1.203h-1.083zm1.009 8.03h-.935v-6.873h.935z"/><path fill="#808285" d="M273.715 110.691a8.429 8.429 0 0 1-1.071.445 3.737 3.737 0 0 1-1.055.148c-.484 0-.912-.068-1.322-.233a2.65 2.65 0 0 1-1.031-.673c-.285-.29-.508-.678-.656-1.151-.154-.445-.228-.992-.228-1.59 0-1.151.302-2.063.884-2.719.604-.644 1.39-.98 2.353-.98.393 0 .741.046 1.112.188.381.097.718.234 1.014.405v1.31h-.068c-.33-.284-.69-.49-1.055-.655-.353-.125-.718-.21-1.048-.21-.639 0-1.134.21-1.476.683-.388.45-.57 1.089-.57 1.978 0 .826.182 1.487.541 1.92.348.479.866.69 1.505.69.228 0 .467-.034.695-.086.222-.074.427-.148.604-.262.188-.074.314-.182.473-.25.143-.114.25-.188.33-.268h.069z" style="stroke-width:5.69906"/><path fill="none" stroke="#808285" stroke-width="0.763672" d="M273.623 110.615c-.364.176-.706.33-1.037.433a3.49 3.49 0 0 1-1.014.148c-.473 0-.884-.074-1.277-.234-.37-.125-.695-.347-.997-.655-.274-.28-.49-.661-.639-1.117-.142-.433-.216-.969-.216-1.556 0-1.117.296-2.012.855-2.65.58-.621 1.345-.952 2.274-.952.376 0 .718.046 1.07.177.371.097.69.233.981.399v1.27h-.063a4.428 4.428 0 0 0-1.02-.632 3.033 3.033 0 0 0-1.014-.205c-.616 0-1.094.205-1.425.667-.376.439-.547 1.06-.547 1.926 0 .804.171 1.453.519 1.875.336.467.837.673 1.453.673.222 0 .45-.035.672-.086.211-.068.41-.142.582-.25.182-.075.302-.177.456-.251.142-.108.245-.183.324-.257h.063z"/><path fill="#808285" d="M278.192 104.974h-.074c-.308 0-.61.052-.963.137a5.675 5.675 0 0 0-1.128.33h-.063v-1.185a9.43 9.43 0 0 1 .952-.205c.404-.057.792-.114 1.202-.114h.074zm0 6.286a4.85 4.85 0 0 1-.684.052c-.592 0-1.105-.2-1.51-.622-.422-.421-.615-.946-.615-1.59 0-.552.09-.968.307-1.299.228-.313.53-.576.924-.798a4.73 4.73 0 0 1 1.459-.348c.045 0 .097-.034.12-.034v.975c-.223.051-.428.08-.582.125-.342.103-.593.25-.792.439-.188.21-.29.49-.29.866 0 .388.102.696.347.878.222.205.575.313 1.031.313.103 0 .211 0 .285-.028zm2.793-.125h-1.1v-.764c-.103.08-.234.188-.41.32-.154.108-.308.216-.49.29a2.854 2.854 0 0 1-.639.256c-.051 0-.102 0-.154.023v-1.071c.285-.029.553-.097.792-.206.337-.159.616-.37.9-.598v-1.926c-.336 0-.752.057-1.202.08-.182.028-.336.028-.49.057v-.975a30.57 30.57 0 0 1 1.693-.13v-.178c0-.262-.052-.495-.137-.678-.097-.16-.222-.325-.376-.416a1.748 1.748 0 0 0-.559-.194c-.205-.017-.41-.05-.62-.05v-1.038c.438 0 .825.057 1.128.13.359.086.672.212.889.417.273.182.473.439.592.758.131.29.183.684.183 1.117z" style="stroke-width:5.69906"/><path fill="none" stroke="#808285" stroke-width="0.763672" d="M280.893 110.999h-1.066v-.736c-.097.074-.222.177-.393.308-.148.103-.296.211-.473.285a3.065 3.065 0 0 1-.615.245c-.052 0-.103 0-.154.018v-1.032c.273-.028.535-.097.769-.2.325-.159.593-.364.866-.58v-1.87c-.325 0-.724.052-1.162.08-.171.029-.32.029-.473.057v-.946a28.74 28.74 0 0 1 1.635-.126v-.176c0-.25-.051-.473-.13-.656a1.295 1.295 0 0 0-.36-.404 1.588 1.588 0 0 0-.541-.177c-.2-.017-.4-.057-.604-.057v-1.003c.427 0 .798.057 1.094.131.348.08.644.2.86.4.263.176.45.421.57.734.131.28.177.662.177 1.083zm-2.701.12a4.468 4.468 0 0 1-.661.056c-.576 0-1.072-.2-1.46-.604-.404-.405-.592-.917-.592-1.539 0-.541.085-.94.29-1.265.223-.302.525-.553.895-.764.394-.176.867-.29 1.408-.347.046 0 .103-.029.12-.029v.946c-.211.046-.416.074-.565.12-.33.103-.57.24-.763.427-.183.206-.28.473-.28.838 0 .376.097.667.331.85.222.199.564.301 1.003.301.103 0 .2 0 .274-.034zm0-6.087h-.074c-.291 0-.587.057-.93.125-.381.08-.729.177-1.088.33h-.063v-1.15c.2-.052.496-.132.918-.206.399-.056.77-.102 1.163-.102h.074z"/><path fill="#808285" d="M286.447 111.058c-.2.086-.428.114-.661.166-.251.017-.48.045-.661.045-.662 0-1.203-.182-1.534-.57-.37-.399-.547-1.025-.547-1.852v-3.733h-.74v-.991h.74v-2.035h1.123v2.035h2.28v.991h-2.28v3.175c0 .393 0 .684.029.894 0 .183.057.382.154.57.113.16.205.285.364.365.154.074.382.103.696.103.176 0 .376-.029.558-.086.2-.04.353-.097.445-.12h.034z" style="stroke-width:5.69906"/><path fill="none" stroke="#808285" stroke-width="0.763672" d="M286.355 110.97c-.194.08-.405.11-.627.16-.245.018-.467.046-.638.046-.633 0-1.146-.177-1.465-.559-.353-.387-.518-1.003-.518-1.812v-3.664h-.713v-.964h.713v-1.994h1.07v1.994h2.178v.964h-2.177v3.117c0 .388 0 .667.028.878 0 .176.052.37.143.552.108.16.2.285.348.36.148.074.364.102.666.102.172 0 .365-.028.536-.08.188-.045.336-.097.422-.12h.034z"/><path fill="#808285" d="M288.364 102.944h1.26v-1.231h-1.26zm.08 8.19h1.095v-7.01h-1.095z" style="stroke-width:5.69906"/><path fill="none" stroke="#808285" stroke-width="0.763672" d="M288.453 103.01h1.083v-1.203h-1.083zm1.01 8.03h-.941v-6.873h.94z"/><path fill="#808285" d="M294.159 111.313c-.93 0-1.676-.302-2.229-.986-.541-.65-.82-1.556-.82-2.707 0-1.151.279-2.035.82-2.713.553-.65 1.3-.986 2.229-.986v1.009c-.587 0-1.055.24-1.385.678-.33.445-.507 1.117-.507 2.012 0 .883.176 1.567.507 1.994.33.462.798.69 1.385.69zm3.049-3.693c0 1.151-.257 2.057-.827 2.707-.535.684-1.282.986-2.222.986v-1.009c.604 0 1.071-.21 1.407-.69.337-.427.508-1.11.508-1.994 0-.895-.172-1.567-.508-2.012-.336-.439-.803-.678-1.407-.678v-1.009c.94 0 1.687.336 2.222.986.57.678.827 1.562.827 2.713" style="stroke-width:5.69906"/><path fill="none" stroke="#808285" stroke-width="0.763672" d="M297.117 107.62c0 1.122-.25 2.006-.81 2.638-.512.667-1.236.963-2.148.963v-.986c.587 0 1.037-.205 1.368-.672.325-.416.49-1.083.49-1.943 0-.872-.165-1.528-.49-1.96-.33-.428-.78-.662-1.368-.662v-.992c.912 0 1.636.331 2.149.97.558.66.809 1.52.809 2.644zm-2.958 3.601c-.906 0-1.613-.296-2.16-.963-.524-.632-.798-1.516-.798-2.638 0-1.123.274-1.984.798-2.645.547-.638 1.254-.974 2.16-.974v.997c-.564 0-1.014.222-1.333.661-.337.433-.496 1.089-.496 1.96 0 .861.16 1.528.496 1.944.319.439.769.667 1.333.667z"/><path fill="#808285" d="M304.52 111.133h-1.1v-3.99c0-.347-.028-.626-.074-.917-.028-.273-.068-.513-.177-.672a1.321 1.321 0 0 0-.433-.393 1.764 1.764 0 0 0-.712-.131c-.325 0-.621.08-.957.233-.325.177-.667.37-.947.627v5.243h-1.128v-7.01h1.128v.781c.331-.313.701-.541 1.066-.73.37-.182.758-.261 1.14-.261.724 0 1.254.239 1.641.678.382.467.553 1.122.553 1.972z" style="stroke-width:5.69906"/><path fill="none" stroke="#808285" stroke-width="0.763672" d="M304.428 111.042h-1.065v-3.887c0-.342-.023-.61-.069-.895-.028-.267-.068-.501-.17-.655a1.246 1.246 0 0 0-.422-.382 1.619 1.619 0 0 0-.684-.13c-.314 0-.604.08-.93.227-.313.177-.643.365-.911.616v5.106h-1.094v-6.833h1.094v.764c.313-.308.678-.53 1.031-.713a2.433 2.433 0 0 1 1.1-.256c.701 0 1.208.233 1.585.66.37.457.535 1.095.535 1.927z"/><path fill="#00904c" d="M301.983 70.317a41.72 41.72 0 0 0 6.314-22.124c0-23.11-18.67-41.842-41.705-41.842a41.384 41.384 0 0 0-22.437 6.565h-91.367s6.149 2.474 6.149 13.045v6.247h28.729c1.715 1.407 4.297 4.382 4.77 9.785v47.94h19.912V42.956c-.718-8.15-5.043-10.748-5.043-10.748h20.721a41.758 41.758 0 0 0-3.157 15.985c0 23.099 18.682 41.831 41.723 41.831 3.34 0 6.605-.416 10.019-1.362V69.981c-3.294 1.544-6.6 2.302-10.093 2.302-13.222 0-23.953-10.76-23.953-24.027 0-13.262 10.73-24.021 23.953-24.021 13.239 0 23.97 10.76 23.97 24.021a23.945 23.945 0 0 1-6.184 16.089 100.766 100.766 0 0 1-15.809-8.572s17.251 34.314 53.366 34.314v-16.71s-8.246-.153-19.878-3.06" style="stroke-width:5.69906"/><path fill="#00904c" d="M152.586 41.983h-26.21s6.549 3.55 6.549 10.475v6.047h10.212s5.956-.297 7.432 6.32c-9.227 8.765-23.788 8.657-32.804-.382-9.175-9.158-9.158-24.05.046-33.23 9.187-9.21 24.078-9.233 33.242-.058 2.422 2.405 4.195 5.238 5.397 8.589L169.4 26.795a36.237 36.237 0 0 0-6.002-7.887c-15.968-15.963-41.893-15.935-57.902.08a40.769 40.769 0 0 0-8.879 13.25s-5.733 11.204-2.211 24.569a40.796 40.796 0 0 0 11.016 20.077c12.282 12.293 30.456 15.086 45.467 8.43v4.747h19.542V60.118c0-17.456-17.844-18.134-17.844-18.134" style="stroke-width:5.69906"/></svg>